<svg width="430" height="430" viewBox="0 0 430 430" fill="none" xmlns="http://www.w3.org/2000/svg">
<path d="M261.002 298.55C260.066 299.404 258.838 299.865 257.572 299.84L66.8818 371.84C65.6253 372.307 64.261 372.403 62.9513 372.117C61.6416 371.832 60.4415 371.176 59.4936 370.228C58.5457 369.28 57.8899 368.08 57.6042 366.77C57.3185 365.461 57.4148 364.096 57.8818 362.84L129.882 172.17C129.857 170.897 130.318 169.664 131.172 168.72C138.362 161.53 173.272 184.78 209.172 220.65C245.072 256.52 268.142 291.37 261.002 298.55Z" fill="#FFC738"/>
<path d="M323.191 308.93C323.191 309.858 322.822 310.749 322.166 311.405C321.509 312.061 320.619 312.43 319.691 312.43C318.763 312.43 317.872 312.061 317.216 311.405C316.56 310.749 316.191 309.858 316.191 308.93C316.191 279.17 298.631 264.99 283.891 258.34C269.151 251.69 252.471 250.09 237.381 251.86C222.991 253.53 210.171 258.31 202.381 264.86C200.641 263.32 198.891 261.75 197.131 260.13C205.701 252.58 218.241 247.59 232.061 245.43C250.171 242.57 270.451 244.56 286.801 251.94C310.261 262.56 323.191 282.79 323.191 308.93Z" fill="#F24C00"/>
<path d="M183.33 196.86C182.54 211.75 179.11 225.14 173.33 235.19C173.165 235.489 172.952 235.759 172.7 235.99C171.04 234.216 169.417 232.456 167.83 230.71C173.25 220.71 176.27 206.66 176.41 191.15C176.64 166.73 169.76 138.65 154.08 116.92C140.77 98.4698 116.27 78.2198 75.23 86.5798C74.7796 86.6717 74.3154 86.674 73.8641 86.5866C73.4128 86.4991 72.9831 86.3236 72.5996 86.0701C72.2161 85.8166 71.8863 85.4901 71.629 85.1091C71.3717 84.7281 71.1919 84.3002 71.1 83.8498C71.0081 83.3993 71.0058 82.9352 71.0932 82.4839C71.1807 82.0326 71.3561 81.6029 71.6096 81.2194C71.8632 80.8359 72.1897 80.506 72.5707 80.2487C72.9516 79.9914 73.3796 79.8117 73.83 79.7198C108.72 72.6098 139.23 84.3698 159.76 112.83C172.24 130.13 180.43 152.74 182.82 176.51C183.509 183.27 183.68 190.073 183.33 196.86Z" fill="#F24C00"/>
<path d="M327.082 147.92C317.342 158.81 298.982 142.39 289.232 153.29C279.482 164.19 297.852 180.61 288.112 191.5C278.372 202.39 260.002 186 250.262 196.88" stroke="#F28BA8" stroke-width="7" stroke-linecap="round" stroke-linejoin="round"/>
<path d="M245.751 67.75C246.231 82.36 221.611 83.16 222.081 97.75C222.551 112.34 247.171 111.56 247.641 126.17C248.111 140.78 223.501 141.58 223.971 156.17" stroke="#F28BA8" stroke-width="7" stroke-linecap="round" stroke-linejoin="round"/>
<path d="M178.191 69.97L185.461 57.73" stroke="#F28BA8" stroke-width="7" stroke-linecap="round" stroke-linejoin="round"/>
<path d="M320.991 353.44L305.691 362.73" stroke="#4BB3FD" stroke-width="7" stroke-linecap="round" stroke-linejoin="round"/>
<path d="M365.842 292.74L373.122 280.5" stroke="#F28BA8" stroke-width="7" stroke-linecap="round" stroke-linejoin="round"/>
<path d="M56.8809 231.11L66.9509 221.04" stroke="#4BB3FD" stroke-width="7" stroke-linecap="round" stroke-linejoin="round"/>
<path d="M338.111 83.4799L328.051 73.4199" stroke="#4BB3FD" stroke-width="7" stroke-linecap="round" stroke-linejoin="round"/>
<path d="M213.921 362.76L208.791 349.48" stroke="#F28BA8" stroke-width="7" stroke-linecap="round" stroke-linejoin="round"/>
<path d="M84.6914 135.18L95.4814 144.46" stroke="#FFC738" stroke-width="7" stroke-linecap="round" stroke-linejoin="round"/>
<path d="M349.751 212.19L345.891 198.48" stroke="#FFC738" stroke-width="7" stroke-linecap="round" stroke-linejoin="round"/>
<g style="mix-blend-mode:multiply" opacity="0.5">
<path d="M261.001 298.55C260.065 299.404 258.837 299.866 257.571 299.84C248.351 300.25 226.841 286.52 202.411 264.84C200.671 263.3 198.921 261.73 197.161 260.11C192.511 255.85 187.781 251.32 183.041 246.58C179.481 243.02 176.051 239.477 172.751 235.95C171.091 234.177 169.468 232.417 167.881 230.67C158.626 220.601 150.048 209.931 142.201 198.73C141.89 198.279 141.461 197.921 140.961 197.696C140.461 197.471 139.908 197.388 139.364 197.455C138.82 197.522 138.304 197.737 137.873 198.076C137.443 198.416 137.113 198.867 136.921 199.38L75.231 362.78C74.872 363.702 74.7165 364.69 74.7752 365.677C74.8339 366.665 75.1054 367.628 75.571 368.5L66.831 371.8C65.5745 372.267 64.2103 372.363 62.9006 372.078C61.5908 371.792 60.3907 371.136 59.4428 370.188C58.4949 369.241 57.8392 368.04 57.5534 366.731C57.2677 365.421 57.3641 364.057 57.831 362.8L129.781 172.13C129.756 170.858 130.218 169.624 131.071 168.68C131.181 168.57 131.301 168.47 131.421 168.37C131.674 168.18 131.945 168.016 132.231 167.88C132.384 167.81 132.541 167.75 132.701 167.7C133.796 167.37 134.949 167.281 136.081 167.44C136.511 167.481 136.938 167.545 137.361 167.63C137.801 167.72 138.271 167.82 138.741 167.94L139.611 168.18C140.311 168.39 141.041 168.64 141.811 168.93C142.581 169.22 143.561 169.61 144.491 170.04C144.981 170.25 145.491 170.49 146.001 170.74C146.511 170.99 146.841 171.14 147.271 171.36C155.181 175.36 165.271 182.19 176.431 191.17C178.691 192.984 180.998 194.887 183.351 196.88C191.591 203.88 200.281 211.88 209.031 220.61C217.491 229.07 225.241 237.47 232.031 245.47C233.884 247.644 235.664 249.78 237.371 251.88C256.081 274.89 266.001 293.52 261.001 298.55Z" fill="#FFC738"/>
</g>
<path d="M68.209 335.492L83.7149 294.43L135.294 346.009L94.2305 361.514L68.209 335.492Z" fill="#4BB3FD"/>
<path d="M96.168 261.451L111.674 220.389L209.337 318.052L168.274 333.557L96.168 261.451Z" fill="#4BB3FD"/>
<g style="mix-blend-mode:multiply" opacity="0.5">
<path d="M124.244 232.959L108.74 274.024L96.168 261.451L111.674 220.389L124.244 232.959Z" fill="#4BB3FD"/>
</g>
<g style="mix-blend-mode:multiply" opacity="0.5">
<path d="M96.2889 307.004L80.7852 348.069L68.209 335.492L83.7149 294.43L96.2889 307.004Z" fill="#4BB3FD"/>
</g>
</svg>
